<mxfile host="app.diagrams.net" agent="Mozilla/5.0 (Windows NT 10.0; Win64; x64) AppleWebKit/537.36 (KHTML, like Gecko) Chrome/131.0.0.0 Safari/537.36" version="24.8.6">
  <diagram name="Page-1" id="pT-SfYbqfpbEG4hRFt4l">
    <mxGraphModel dx="1900" dy="734" grid="1" gridSize="10" guides="1" tooltips="1" connect="1" arrows="1" fold="1" page="1" pageScale="1" pageWidth="827" pageHeight="1169" math="0" shadow="0">
      <root>
        <mxCell id="0" />
        <mxCell id="1" parent="0" />
        <mxCell id="8UIpFuk8F8O8-YQnR-v7-4" style="edgeStyle=orthogonalEdgeStyle;rounded=0;orthogonalLoop=1;jettySize=auto;html=1;exitX=0;exitY=1;exitDx=0;exitDy=0;entryX=1;entryY=1;entryDx=0;entryDy=0;" edge="1" parent="1" source="8UIpFuk8F8O8-YQnR-v7-1" target="8UIpFuk8F8O8-YQnR-v7-2">
          <mxGeometry relative="1" as="geometry" />
        </mxCell>
        <mxCell id="8UIpFuk8F8O8-YQnR-v7-7" style="edgeStyle=orthogonalEdgeStyle;rounded=0;orthogonalLoop=1;jettySize=auto;html=1;exitX=0;exitY=0;exitDx=0;exitDy=0;entryX=1;entryY=0;entryDx=0;entryDy=0;" edge="1" parent="1" source="8UIpFuk8F8O8-YQnR-v7-1" target="8UIpFuk8F8O8-YQnR-v7-2">
          <mxGeometry relative="1" as="geometry" />
        </mxCell>
        <mxCell id="8UIpFuk8F8O8-YQnR-v7-9" style="edgeStyle=orthogonalEdgeStyle;rounded=0;orthogonalLoop=1;jettySize=auto;html=1;exitX=1;exitY=0;exitDx=0;exitDy=0;entryX=0;entryY=0;entryDx=0;entryDy=0;" edge="1" parent="1" source="8UIpFuk8F8O8-YQnR-v7-1" target="8UIpFuk8F8O8-YQnR-v7-3">
          <mxGeometry relative="1" as="geometry">
            <Array as="points">
              <mxPoint x="250" y="340" />
              <mxPoint x="440" y="340" />
            </Array>
          </mxGeometry>
        </mxCell>
        <mxCell id="8UIpFuk8F8O8-YQnR-v7-10" style="edgeStyle=orthogonalEdgeStyle;rounded=0;orthogonalLoop=1;jettySize=auto;html=1;exitX=1;exitY=1;exitDx=0;exitDy=0;entryX=0;entryY=1;entryDx=0;entryDy=0;" edge="1" parent="1" source="8UIpFuk8F8O8-YQnR-v7-1" target="8UIpFuk8F8O8-YQnR-v7-3">
          <mxGeometry relative="1" as="geometry" />
        </mxCell>
        <mxCell id="8UIpFuk8F8O8-YQnR-v7-11" style="edgeStyle=orthogonalEdgeStyle;rounded=0;orthogonalLoop=1;jettySize=auto;html=1;exitX=1;exitY=0.5;exitDx=0;exitDy=0;entryX=0;entryY=0.5;entryDx=0;entryDy=0;" edge="1" parent="1" source="8UIpFuk8F8O8-YQnR-v7-1" target="8UIpFuk8F8O8-YQnR-v7-3">
          <mxGeometry relative="1" as="geometry">
            <mxPoint x="360" y="420" as="targetPoint" />
            <Array as="points">
              <mxPoint x="250" y="430" />
            </Array>
          </mxGeometry>
        </mxCell>
        <mxCell id="8UIpFuk8F8O8-YQnR-v7-1" value="Chipin" style="rounded=0;whiteSpace=wrap;html=1;" vertex="1" parent="1">
          <mxGeometry x="130" y="390" width="120" height="60" as="geometry" />
        </mxCell>
        <mxCell id="8UIpFuk8F8O8-YQnR-v7-2" value="Members/Waitlist" style="rounded=0;whiteSpace=wrap;html=1;" vertex="1" parent="1">
          <mxGeometry x="-260" y="370" width="220" height="120" as="geometry" />
        </mxCell>
        <mxCell id="8UIpFuk8F8O8-YQnR-v7-3" value="Group Owner/Administrators" style="rounded=0;whiteSpace=wrap;html=1;" vertex="1" parent="1">
          <mxGeometry x="440" y="370" width="220" height="120" as="geometry" />
        </mxCell>
        <mxCell id="8UIpFuk8F8O8-YQnR-v7-6" value="event info, transaction info/processed payment" style="rounded=0;whiteSpace=wrap;html=1;" vertex="1" parent="1">
          <mxGeometry x="-30" y="525" width="140" height="35" as="geometry" />
        </mxCell>
        <mxCell id="8UIpFuk8F8O8-YQnR-v7-8" style="edgeStyle=orthogonalEdgeStyle;rounded=0;orthogonalLoop=1;jettySize=auto;html=1;exitX=0;exitY=0.5;exitDx=0;exitDy=0;entryX=1.014;entryY=0.417;entryDx=0;entryDy=0;entryPerimeter=0;" edge="1" parent="1" source="8UIpFuk8F8O8-YQnR-v7-1" target="8UIpFuk8F8O8-YQnR-v7-2">
          <mxGeometry relative="1" as="geometry" />
        </mxCell>
        <mxCell id="8UIpFuk8F8O8-YQnR-v7-12" value="send+ delete messages, edit messages and delete conversations" style="rounded=0;whiteSpace=wrap;html=1;" vertex="1" parent="1">
          <mxGeometry x="-30" y="430" width="140" height="50" as="geometry" />
        </mxCell>
        <mxCell id="8UIpFuk8F8O8-YQnR-v7-14" value="approve join requests, deny requests, put on wait list, prioritise members" style="rounded=0;whiteSpace=wrap;html=1;" vertex="1" parent="1">
          <mxGeometry x="-30" y="290" width="150" height="60" as="geometry" />
        </mxCell>
        <mxCell id="8UIpFuk8F8O8-YQnR-v7-15" value="send invites, registered users&lt;span style=&quot;color: rgba(0, 0, 0, 0); font-family: monospace; font-size: 0px; text-align: start; text-wrap-mode: nowrap;&quot;&gt;%3CmxGraphModel%3E%3Croot%3E%3CmxCell%20id%3D%220%22%2F%3E%3CmxCell%20id%3D%221%22%20parent%3D%220%22%2F%3E%3CmxCell%20id%3D%222%22%20value%3D%22approve%20join%20requests%2C%20deny%20requests%2C%20put%20on%20wait%20list%2C%20prioritise%20members%22%20style%3D%22rounded%3D0%3BwhiteSpace%3Dwrap%3Bhtml%3D1%3B%22%20vertex%3D%221%22%20parent%3D%221%22%3E%3CmxGeometry%20x%3D%22-30%22%20y%3D%22290%22%20width%3D%22150%22%20height%3D%2260%22%20as%3D%22geometry%22%2F%3E%3C%2FmxCell%3E%3C%2Froot%3E%3C%2FmxGraphModel%3E&lt;/span&gt;" style="rounded=0;whiteSpace=wrap;html=1;" vertex="1" parent="1">
          <mxGeometry x="270" y="270" width="150" height="60" as="geometry" />
        </mxCell>
        <mxCell id="8UIpFuk8F8O8-YQnR-v7-16" value="new event info, scheduled and approved events" style="rounded=0;whiteSpace=wrap;html=1;" vertex="1" parent="1">
          <mxGeometry x="270" y="360" width="150" height="60" as="geometry" />
        </mxCell>
        <mxCell id="8UIpFuk8F8O8-YQnR-v7-17" value="Member count, budget, join requests" style="rounded=0;whiteSpace=wrap;html=1;" vertex="1" parent="1">
          <mxGeometry x="270" y="525" width="150" height="60" as="geometry" />
        </mxCell>
      </root>
    </mxGraphModel>
  </diagram>
</mxfile>
